<svg width="415" height="79" viewBox="0 0 415 79" fill="none" xmlns="http://www.w3.org/2000/svg">
<path fill-rule="evenodd" clip-rule="evenodd" d="M51.9171 38.4805L57.6956 21.33H61.0459L50.3935 51.6048H47.3438L42.8336 38.6237L39.1826 27.1952L35.5745 38.5806L31.0644 51.6048H27.9717L17.3192 21.33H20.7125L29.4751 47.4646L31.0445 42.7836L23.5022 21.33H26.8955L32.5653 38.2478L38.2376 21.33H40.1276L48.8901 47.4646L50.3778 43.0491L48.8438 38.6237L43.3234 21.33H46.1377L51.9171 38.4805Z" fill="white"/>
<path fill-rule="evenodd" clip-rule="evenodd" d="M68.8482 21.33V33.8871C69.7341 32.425 70.8273 31.4001 72.1277 30.8123C73.4281 30.2246 74.7927 29.9164 76.2217 29.8878C77.7078 29.8878 79.0011 30.1243 80.1014 30.5973C81.2017 31.0704 82.1162 31.7298 82.845 32.5755C83.5738 33.4213 84.124 34.4318 84.4955 35.6073C84.867 36.7827 85.0528 38.0872 85.0528 39.5207V51.4328H82.1805V39.5207C82.1805 37.3704 81.6661 35.6861 80.6372 34.4677C79.6084 33.2492 78.0222 32.64 75.8787 32.64C74.8499 32.64 73.9068 32.8264 73.0494 33.1991C72.192 33.5718 71.4561 34.095 70.8416 34.7687C70.2271 35.4424 69.7484 36.2237 69.4055 37.1124C69.0625 38.0012 68.891 38.9616 68.891 39.9937V51.4328H66.0188V21.33H68.8482ZM110.479 42.0579H92.0457C92.1314 43.176 92.4029 44.1722 92.8602 45.0467C93.3175 45.9211 93.9033 46.6593 94.6178 47.2614C95.3323 47.8634 96.154 48.3221 97.0828 48.6375C98.0117 48.9529 99.0048 49.1105 100.062 49.1105C100.691 49.1105 101.348 49.046 102.034 48.917C102.72 48.788 103.385 48.6017 104.028 48.358C104.671 48.1143 105.271 47.8133 105.828 47.4549C106.385 47.0965 106.85 46.6737 107.221 46.1863L109.151 47.9064C108.093 49.2252 106.736 50.2143 105.078 50.8737C103.42 51.5331 101.748 51.8628 100.062 51.8628C98.4903 51.8628 97.0328 51.6048 95.6896 51.0887C94.3463 50.5727 93.1889 49.8345 92.2171 48.874C91.2454 47.9136 90.4809 46.7525 89.9236 45.3907C89.3663 44.0289 89.0877 42.5023 89.0877 40.8108C89.0877 39.234 89.3592 37.7718 89.9022 36.4244C90.4452 35.0769 91.1954 33.9158 92.1528 32.941C93.1103 31.9663 94.2534 31.2065 95.5824 30.6618C96.9113 30.1171 98.3617 29.8591 99.9336 29.8878C101.506 29.8591 102.977 30.0884 104.349 30.5758C105.721 31.0632 106.893 31.8086 107.864 32.812C108.836 33.8155 109.565 35.0841 110.051 36.6179C110.537 38.1517 110.68 39.965 110.479 42.0579ZM92.0457 39.6067H107.779C107.75 38.4599 107.529 37.435 107.114 36.5319C106.7 35.6288 106.143 34.8762 105.442 34.2742C104.742 33.6721 103.92 33.2134 102.977 32.898C102.034 32.5827 101.034 32.425 99.9765 32.425C97.833 32.425 96.0468 33.0414 94.6178 34.2742C93.1888 35.507 92.3315 37.2844 92.0457 39.6067ZM132.348 34.4032V30.1888H135.049V51.4328H132.391V47.2184C131.934 47.9924 131.383 48.6733 130.74 49.2611C130.097 49.8488 129.411 50.3362 128.683 50.7232C127.954 51.1102 127.189 51.3969 126.389 51.5833C125.589 51.7696 124.789 51.8628 123.989 51.8628C122.474 51.8628 121.066 51.6048 119.766 51.0887C118.465 50.5727 117.322 49.8345 116.336 48.874C115.35 47.9136 114.579 46.7525 114.021 45.3907C113.464 44.0289 113.185 42.5023 113.185 40.8108C113.185 39.1479 113.471 37.6428 114.043 36.2954C114.614 34.9479 115.386 33.8011 116.358 32.855C117.329 31.9089 118.473 31.1779 119.787 30.6618C121.102 30.1458 122.517 29.8878 124.031 29.8878C124.832 29.8878 125.646 29.9809 126.475 30.1673C127.304 30.3536 128.083 30.6332 128.811 31.0059C129.54 31.3786 130.212 31.8516 130.826 32.425C131.441 32.9984 131.948 33.6578 132.348 34.4032ZM124.117 32.511C123.003 32.511 121.952 32.7117 120.966 33.1131C119.98 33.5144 119.123 34.0735 118.394 34.7902C117.665 35.5069 117.094 36.3814 116.679 37.4135C116.265 38.4456 116.058 39.578 116.058 40.8108C116.058 42.0722 116.265 43.2118 116.679 44.2296C117.094 45.2474 117.665 46.1218 118.394 46.8528C119.123 47.5839 119.98 48.1501 120.966 48.5515C121.952 48.9529 123.003 49.1536 124.117 49.1536C125.946 49.1536 127.468 48.745 128.683 47.9279C129.897 47.1109 130.805 46.0859 131.405 44.8531C132.005 43.6204 132.305 42.2801 132.305 40.8323C132.305 39.3845 132.005 38.0442 131.405 36.8114C130.805 35.5786 129.897 34.5537 128.683 33.7366C127.468 32.9195 125.946 32.511 124.117 32.511ZM143.885 21.33V51.4328H141.013V21.33H143.885ZM160.829 51.4328V21.33H163.83V51.4328H160.829ZM186.813 51.4328V39.5207C186.813 37.2271 186.198 35.4926 184.969 34.3172C183.74 33.1417 182.054 32.554 179.911 32.554C178.882 32.554 177.939 32.7475 177.081 33.1346C176.224 33.5216 175.495 34.0448 174.895 34.7042C174.295 35.3636 173.823 36.1305 173.48 37.0049C173.137 37.8793 172.966 38.8326 172.966 39.8647V51.4328H170.094V30.1888H172.837L172.923 33.7581C173.809 32.382 174.895 31.3857 176.181 30.7693C177.467 30.1529 178.818 29.8448 180.232 29.8448C181.647 29.8448 182.933 30.0454 184.091 30.4468C185.248 30.8482 186.241 31.4574 187.07 32.2745C187.899 33.0916 188.549 34.1021 189.021 35.3063C189.492 36.5104 189.728 37.9008 189.728 39.4776V51.4328H186.813ZM213.183 30.1888L204.266 51.4758H201.093L192.177 30.1888H195.349L202.68 48.2935L210.01 30.1888H213.183ZM236.895 42.0579H218.461C218.546 43.176 218.818 44.1722 219.275 45.0467C219.732 45.9211 220.318 46.6593 221.033 47.2614C221.747 47.8634 222.569 48.3221 223.498 48.6375C224.427 48.9529 225.42 49.1105 226.477 49.1105C227.106 49.1105 227.763 49.046 228.449 48.917C229.135 48.788 229.8 48.6017 230.443 48.358C231.086 48.1143 231.686 47.8133 232.243 47.4549C232.8 47.0965 233.265 46.6737 233.636 46.1863L235.566 47.9064C234.508 49.2252 233.151 50.2143 231.493 50.8737C229.835 51.5331 228.163 51.8628 226.477 51.8628C224.905 51.8628 223.448 51.6048 222.105 51.0887C220.761 50.5727 219.604 49.8345 218.632 48.874C217.66 47.9136 216.896 46.7525 216.339 45.3907C215.781 44.0289 215.503 42.5023 215.503 40.8108C215.503 39.234 215.774 37.7718 216.317 36.4244C216.86 35.0769 217.61 33.9158 218.568 32.941C219.525 31.9663 220.668 31.2065 221.997 30.6618C223.326 30.1171 224.777 29.8591 226.349 29.8878C227.921 29.8591 229.392 30.0884 230.764 30.5758C232.136 31.0632 233.308 31.8086 234.279 32.812C235.251 33.8155 235.98 35.0841 236.466 36.6179C236.952 38.1517 237.095 39.965 236.895 42.0579ZM218.461 39.6067H234.194C234.165 38.4599 233.944 37.435 233.529 36.5319C233.115 35.6288 232.558 34.8762 231.857 34.2742C231.157 33.6721 230.336 33.2134 229.392 32.898C228.449 32.5827 227.449 32.425 226.392 32.425C224.248 32.425 222.462 33.0414 221.033 34.2742C219.604 35.507 218.746 37.2844 218.461 39.6067ZM254.776 34.6182C253.776 33.7008 252.769 33.1131 251.754 32.855C250.739 32.597 249.66 32.468 248.517 32.468C247.746 32.468 247.01 32.5325 246.31 32.6615C245.609 32.7905 244.995 32.9984 244.466 33.2851C243.937 33.5718 243.516 33.9301 243.202 34.3602C242.887 34.7902 242.744 35.2776 242.773 35.8223C242.773 36.453 242.951 36.9691 243.309 37.3705C243.666 37.7718 244.123 38.1015 244.68 38.3595C245.238 38.6176 245.859 38.8183 246.545 38.9616C247.231 39.1049 247.903 39.2196 248.56 39.3056C249.503 39.449 250.489 39.621 251.518 39.8217C252.547 40.0224 253.49 40.3377 254.348 40.7678C255.205 41.1978 255.912 41.7999 256.47 42.5739C257.027 43.348 257.306 44.3801 257.306 45.6702C257.277 46.7883 257.013 47.7416 256.512 48.53C256.012 49.3184 255.355 49.9563 254.54 50.4437C253.726 50.9311 252.797 51.2894 251.754 51.5188C250.711 51.7481 249.66 51.8628 248.603 51.8628C246.774 51.8628 245.023 51.5403 243.352 50.8952C241.68 50.2501 240.301 49.1966 239.215 47.7344L241.015 45.7562C241.93 46.989 243.087 47.8634 244.488 48.3795C245.888 48.8955 247.274 49.1679 248.646 49.1966C249.246 49.1966 249.882 49.1464 250.554 49.046C251.225 48.9457 251.854 48.7593 252.44 48.487C253.026 48.2146 253.504 47.8491 253.876 47.3904C254.248 46.9317 254.433 46.344 254.433 45.6272C254.433 44.9392 254.276 44.3729 253.962 43.9286C253.647 43.4842 253.212 43.1258 252.654 42.8535C252.097 42.5811 251.447 42.3733 250.704 42.2299C249.961 42.0866 249.16 41.9575 248.303 41.8429C247.274 41.6995 246.267 41.5132 245.281 41.2838C244.295 41.0545 243.409 40.7248 242.623 40.2947C241.837 39.8647 241.194 39.2985 240.694 38.5961C240.193 37.8937 239.943 36.9978 239.943 35.9083C239.943 34.8762 240.193 33.9731 240.694 33.1991C241.194 32.425 241.844 31.7871 242.644 31.2854C243.444 30.7837 244.359 30.4181 245.388 30.1888C246.417 29.9594 247.446 29.8448 248.474 29.8448C250.075 29.8448 251.532 30.0741 252.847 30.5328C254.162 30.9915 255.362 31.7226 256.448 32.726L254.776 34.6182ZM266.699 23.9102V30.3608H273.558V32.812H266.699V44.6811C266.699 46.0286 266.942 47.1037 267.428 47.9064C267.914 48.7092 268.871 49.1105 270.3 49.1105C270.786 49.1105 271.293 49.0317 271.822 48.874C272.351 48.7163 272.872 48.5228 273.387 48.2935L274.287 50.7017C273.601 51.0171 272.922 51.2679 272.251 51.4543C271.579 51.6406 270.9 51.7338 270.214 51.7338C267.928 51.7625 266.292 51.1461 265.306 49.8846C264.32 48.6232 263.827 46.8887 263.827 44.6811V32.812H259.497V30.3608H263.827V24.2112L266.699 23.9102ZM292.426 51.4328V39.1336C292.426 38.1875 292.276 37.3131 291.976 36.5104C291.676 35.7076 291.254 35.0124 290.711 34.4247C290.168 33.837 289.518 33.3711 288.761 33.027C288.003 32.683 287.153 32.511 286.21 32.511C285.267 32.511 284.416 32.683 283.659 33.027C282.902 33.3711 282.252 33.837 281.709 34.4247C281.165 35.0124 280.744 35.7076 280.444 36.5104C280.144 37.3131 279.994 38.1875 279.994 39.1336V51.4328H277.121V30.1028H279.822L279.951 33.5001C280.637 32.1526 281.58 31.2137 282.78 30.6833C283.981 30.1529 285.224 29.8878 286.51 29.8878C287.282 29.8878 288.039 29.9594 288.782 30.1028C289.525 30.2461 290.232 30.5113 290.904 30.8983C291.576 31.2854 292.176 31.7943 292.704 32.425C293.233 33.0557 293.655 33.8154 293.969 34.7042C294.684 33.0127 295.741 31.7871 297.141 31.0274C298.542 30.2676 300.028 29.8878 301.6 29.8878C302.943 29.8878 304.165 30.0956 305.265 30.5113C306.366 30.927 307.302 31.5362 308.073 32.339C308.845 33.1417 309.445 34.1093 309.874 35.2418C310.302 36.3742 310.517 37.6428 310.517 39.0476V51.4328H307.644V39.0476C307.644 38.1015 307.502 37.2271 307.216 36.4244C306.93 35.6216 306.523 34.9336 305.994 34.3602C305.465 33.7868 304.829 33.3352 304.086 33.0055C303.343 32.6758 302.5 32.511 301.557 32.511C300.614 32.511 299.764 32.683 299.006 33.027C298.249 33.3711 297.592 33.837 297.034 34.4247C296.477 35.0124 296.048 35.7076 295.748 36.5104C295.448 37.3131 295.298 38.1875 295.298 39.1336V51.4328H292.426ZM335.943 42.0579H317.51C317.595 43.176 317.867 44.1722 318.324 45.0467C318.781 45.9211 319.367 46.6593 320.082 47.2614C320.796 47.8634 321.618 48.3221 322.547 48.6375C323.476 48.9529 324.469 49.1105 325.526 49.1105C326.155 49.1105 326.812 49.046 327.498 48.917C328.184 48.788 328.849 48.6017 329.492 48.358C330.135 48.1143 330.735 47.8133 331.292 47.4549C331.849 47.0965 332.314 46.6737 332.685 46.1863L334.614 47.9064C333.557 49.2252 332.199 50.2143 330.542 50.8737C328.884 51.5331 327.212 51.8628 325.526 51.8628C323.954 51.8628 322.497 51.6048 321.153 51.0887C319.81 50.5727 318.653 49.8345 317.681 48.874C316.709 47.9136 315.945 46.7525 315.388 45.3907C314.83 44.0289 314.552 42.5023 314.552 40.8108C314.552 39.234 314.823 37.7718 315.366 36.4244C315.909 35.0769 316.659 33.9158 317.617 32.941C318.574 31.9663 319.717 31.2065 321.046 30.6618C322.375 30.1171 323.826 29.8591 325.398 29.8878C326.969 29.8591 328.441 30.0884 329.813 30.5758C331.185 31.0632 332.357 31.8086 333.328 32.812C334.3 33.8155 335.029 35.0841 335.515 36.6179C336.001 38.1517 336.143 39.965 335.943 42.0579ZM317.51 39.6067H333.243C333.214 38.4599 332.993 37.435 332.578 36.5319C332.164 35.6288 331.606 34.8762 330.906 34.2742C330.206 33.6721 329.384 33.2134 328.441 32.898C327.498 32.5827 326.498 32.425 325.44 32.425C323.297 32.425 321.511 33.0414 320.082 34.2742C318.653 35.507 317.795 37.2844 317.51 39.6067ZM356.74 51.4328V39.5207C356.74 37.2271 356.126 35.4926 354.897 34.3172C353.668 33.1417 351.982 32.554 349.838 32.554C348.809 32.554 347.866 32.7475 347.009 33.1346C346.151 33.5216 345.423 34.0448 344.823 34.7042C344.222 35.3636 343.751 36.1305 343.408 37.0049C343.065 37.8793 342.893 38.8326 342.893 39.8647V51.4328H340.021V30.1888H342.765L342.851 33.7581C343.737 32.382 344.823 31.3857 346.109 30.7693C347.395 30.1529 348.745 29.8448 350.16 29.8448C351.574 29.8448 352.861 30.0454 354.018 30.4468C355.175 30.8482 356.169 31.4574 356.997 32.2745C357.826 33.0916 358.476 34.1021 358.948 35.3063C359.42 36.5104 359.655 37.9008 359.655 39.4776V51.4328H356.74ZM369.863 23.9102V30.3608H376.723V32.812H369.863V44.6811C369.863 46.0286 370.106 47.1037 370.592 47.9064C371.078 48.7092 372.035 49.1105 373.464 49.1105C373.95 49.1105 374.458 49.0317 374.986 48.874C375.515 48.7163 376.037 48.5228 376.551 48.2935L377.451 50.7017C376.765 51.0171 376.087 51.2679 375.415 51.4543C374.743 51.6406 374.065 51.7338 373.379 51.7338C371.092 51.7625 369.456 51.1461 368.47 49.8846C367.484 48.6232 366.991 46.8887 366.991 44.6811V32.812H362.661V30.3608H366.991V24.2112L369.863 23.9102ZM394.09 34.6182C393.089 33.7008 392.082 33.1131 391.067 32.855C390.053 32.597 388.974 32.468 387.831 32.468C387.059 32.468 386.323 32.5325 385.623 32.6615C384.923 32.7905 384.308 32.9984 383.78 33.2851C383.251 33.5718 382.829 33.9301 382.515 34.3602C382.201 34.7902 382.058 35.2776 382.086 35.8223C382.086 36.453 382.265 36.9691 382.622 37.3705C382.979 37.7718 383.437 38.1015 383.994 38.3595C384.551 38.6176 385.173 38.8183 385.859 38.9616C386.545 39.1049 387.216 39.2196 387.874 39.3056C388.817 39.449 389.803 39.621 390.832 39.8217C391.861 40.0224 392.804 40.3377 393.661 40.7678C394.518 41.1978 395.226 41.7999 395.783 42.5739C396.34 43.348 396.619 44.3801 396.619 45.6702C396.59 46.7883 396.326 47.7416 395.826 48.53C395.326 49.3184 394.669 49.9563 393.854 50.4437C393.039 50.9311 392.111 51.2894 391.067 51.5188C390.024 51.7481 388.974 51.8628 387.917 51.8628C386.087 51.8628 384.337 51.5403 382.665 50.8952C380.993 50.2501 379.614 49.1966 378.528 47.7344L380.329 45.7562C381.243 46.989 382.401 47.8634 383.801 48.3795C385.202 48.8955 386.588 49.1679 387.959 49.1966C388.56 49.1966 389.196 49.1464 389.867 49.046C390.539 48.9457 391.168 48.7593 391.753 48.487C392.339 48.2146 392.818 47.8491 393.19 47.3904C393.561 46.9317 393.747 46.344 393.747 45.6272C393.747 44.9392 393.59 44.3729 393.275 43.9286C392.961 43.4842 392.525 43.1258 391.968 42.8535C391.41 42.5811 390.76 42.3733 390.017 42.2299C389.274 42.0866 388.474 41.9575 387.616 41.8429C386.588 41.6995 385.58 41.5132 384.594 41.2838C383.608 41.0545 382.722 40.7248 381.936 40.2947C381.15 39.8647 380.507 39.2985 380.007 38.5961C379.507 37.8937 379.257 36.9978 379.257 35.9083C379.257 34.8762 379.507 33.9731 380.007 33.1991C380.507 32.425 381.158 31.7871 381.958 31.2854C382.758 30.7837 383.673 30.4181 384.701 30.1888C385.73 29.9594 386.759 29.8448 387.788 29.8448C389.388 29.8448 390.846 30.0741 392.161 30.5328C393.475 30.9915 394.676 31.7226 395.762 32.726L394.09 34.6182Z" fill="white"/>
</svg>
