<svg width="416" height="79" viewBox="0 0 416 79" fill="none" xmlns="http://www.w3.org/2000/svg">
<g clip-path="url(#clip0)">
<path fill-rule="evenodd" clip-rule="evenodd" d="M88.3043 39.136L93.8596 22.5702H97.0805L86.8395 51.8129H83.9076L79.5717 39.2744L76.0617 28.2354L72.5929 39.2327L68.257 51.8129H65.2838L55.0428 22.5702H58.3051L66.7291 47.8139L68.238 43.2924L60.9869 22.5702H64.2492L69.7 38.9113L75.1532 22.5702H76.9701L85.3942 47.8139L86.8245 43.5489L85.3497 39.2744L80.0426 22.5702H82.7481L88.3043 39.136Z" fill="white"/>
<path fill-rule="evenodd" clip-rule="evenodd" d="M103.427 22.4038V34.5329C104.279 33.1206 105.33 32.1306 106.58 31.5629C107.83 30.9952 109.142 30.6976 110.516 30.6699C111.945 30.6699 113.188 30.8983 114.246 31.3552C115.304 31.8122 116.183 32.4491 116.884 33.266C117.584 34.0829 118.113 35.059 118.47 36.1944C118.827 37.3298 119.006 38.5898 119.006 39.9744V51.4804H116.245V39.9744C116.245 37.8975 115.75 36.2706 114.761 35.0937C113.772 33.9167 112.247 33.3283 110.186 33.3283C109.197 33.3283 108.291 33.5083 107.466 33.8683C106.642 34.2283 105.935 34.7337 105.344 35.3844C104.753 36.0352 104.293 36.7898 103.963 37.6482C103.633 38.5067 103.469 39.4344 103.469 40.4313V51.4804H100.707V22.4038H103.427ZM143.451 42.4251H125.729C125.811 43.5051 126.072 44.4674 126.512 45.312C126.951 46.1566 127.515 46.8697 128.202 47.4512C128.889 48.0327 129.678 48.4758 130.571 48.7804C131.464 49.085 132.419 49.2373 133.436 49.2373C134.04 49.2373 134.672 49.175 135.332 49.0504C135.991 48.9258 136.63 48.7458 137.248 48.5104C137.866 48.275 138.443 47.9843 138.979 47.6381C139.515 47.292 139.961 46.8835 140.318 46.4128L142.173 48.0743C141.156 49.3481 139.851 50.3035 138.258 50.9404C136.664 51.5773 135.057 51.8958 133.436 51.8958C131.925 51.8958 130.523 51.6465 129.232 51.1481C127.941 50.6496 126.828 49.9366 125.894 49.0089C124.96 48.0812 124.225 46.9597 123.689 45.6443C123.153 44.3289 122.885 42.8543 122.885 41.2205C122.885 39.6974 123.146 38.2852 123.668 36.9836C124.19 35.6821 124.911 34.5606 125.832 33.6191C126.752 32.6775 127.851 31.9437 129.129 31.4175C130.407 30.8914 131.801 30.6422 133.312 30.6699C134.823 30.6422 136.238 30.8637 137.557 31.3345C138.876 31.8052 140.002 32.5252 140.937 33.4944C141.871 34.4637 142.571 35.689 143.038 37.1706C143.506 38.6521 143.643 40.4036 143.451 42.4251ZM125.729 40.0574H140.854C140.827 38.9498 140.614 37.9598 140.215 37.0875C139.817 36.2152 139.281 35.4883 138.608 34.9067C137.935 34.3252 137.145 33.8821 136.238 33.5775C135.332 33.2729 134.37 33.1206 133.353 33.1206C131.293 33.1206 129.575 33.716 128.202 34.9067C126.828 36.0975 126.004 37.8144 125.729 40.0574ZM164.474 35.0313V30.9606H167.071V51.4804H164.516V47.4097C164.076 48.1573 163.547 48.815 162.929 49.3827C162.311 49.9504 161.651 50.4212 160.951 50.795C160.25 51.1688 159.515 51.4458 158.746 51.6258C157.976 51.8058 157.207 51.8958 156.438 51.8958C154.982 51.8958 153.628 51.6465 152.378 51.1481C151.128 50.6496 150.029 49.9366 149.081 49.0089C148.133 48.0812 147.391 46.9597 146.856 45.6443C146.32 44.3289 146.052 42.8543 146.052 41.2205C146.052 39.6144 146.327 38.1605 146.876 36.859C147.426 35.5575 148.168 34.4498 149.102 33.536C150.036 32.6221 151.135 31.916 152.399 31.4175C153.663 30.9191 155.023 30.6699 156.479 30.6699C157.248 30.6699 158.031 30.7599 158.828 30.9399C159.625 31.1199 160.374 31.3899 161.074 31.7499C161.775 32.1098 162.421 32.5668 163.011 33.1206C163.602 33.6744 164.09 34.3114 164.474 35.0313ZM156.561 33.2037C155.49 33.2037 154.48 33.3975 153.532 33.7852C152.584 34.1729 151.76 34.7129 151.059 35.4052C150.359 36.0975 149.809 36.9421 149.411 37.939C149.013 38.9359 148.813 40.0297 148.813 41.2205C148.813 42.439 149.013 43.5397 149.411 44.5228C149.809 45.5058 150.359 46.3504 151.059 47.0566C151.76 47.7627 152.584 48.3097 153.532 48.6973C154.48 49.085 155.49 49.2789 156.561 49.2789C158.32 49.2789 159.783 48.8843 160.951 48.095C162.118 47.3058 162.991 46.3158 163.568 45.1251C164.145 43.9343 164.433 42.6397 164.433 41.2413C164.433 39.8428 164.145 38.5482 163.568 37.3575C162.991 36.1667 162.118 35.1767 160.951 34.3875C159.783 33.5983 158.32 33.2037 156.561 33.2037ZM175.566 22.4038V51.4804H172.805V22.4038H175.566ZM202.942 51.5635H199.727L187.445 22.4038H190.619L201.334 48.365L211.885 22.4038H215.099L202.942 51.5635ZM237.648 42.4251H219.926C220.009 43.5051 220.27 44.4674 220.709 45.312C221.149 46.1566 221.712 46.8697 222.399 47.4512C223.086 48.0327 223.876 48.4758 224.769 48.7804C225.662 49.085 226.617 49.2373 227.633 49.2373C228.238 49.2373 228.87 49.175 229.529 49.0504C230.189 48.9258 230.827 48.7458 231.446 48.5104C232.064 48.275 232.641 47.9843 233.177 47.6381C233.712 47.292 234.159 46.8835 234.516 46.4128L236.371 48.0743C235.354 49.3481 234.049 50.3035 232.455 50.9404C230.862 51.5773 229.254 51.8958 227.633 51.8958C226.122 51.8958 224.721 51.6465 223.43 51.1481C222.138 50.6496 221.025 49.9366 220.091 49.0089C219.157 48.0812 218.422 46.9597 217.886 45.6443C217.351 44.3289 217.083 42.8543 217.083 41.2205C217.083 39.6974 217.344 38.2852 217.866 36.9836C218.388 35.6821 219.109 34.5606 220.029 33.6191C220.95 32.6775 222.049 31.9437 223.327 31.4175C224.604 30.8914 225.999 30.6422 227.51 30.6699C229.021 30.6422 230.436 30.8637 231.755 31.3345C233.074 31.8052 234.2 32.5252 235.134 33.4944C236.068 34.4637 236.769 35.689 237.236 37.1706C237.703 38.6521 237.841 40.4036 237.648 42.4251ZM219.926 40.0574H235.052C235.024 38.9498 234.811 37.9598 234.413 37.0875C234.015 36.2152 233.479 35.4883 232.806 34.9067C232.132 34.3252 231.343 33.8821 230.436 33.5775C229.529 33.2729 228.568 33.1206 227.551 33.1206C225.49 33.1206 223.773 33.716 222.399 34.9067C221.025 36.0975 220.201 37.8144 219.926 40.0574ZM257.642 51.4804V39.9744C257.642 37.759 257.051 36.0836 255.87 34.9483C254.688 33.8129 253.067 33.2452 251.006 33.2452C250.017 33.2452 249.111 33.4321 248.286 33.806C247.462 34.1798 246.761 34.6852 246.184 35.3221C245.607 35.959 245.154 36.6998 244.824 37.5444C244.495 38.389 244.33 39.3098 244.33 40.3067V51.4804H241.568V30.9606H244.206L244.289 34.4083C245.14 33.0791 246.184 32.1168 247.421 31.5214C248.657 30.926 249.955 30.6283 251.315 30.6283C252.675 30.6283 253.912 30.8222 255.025 31.2099C256.137 31.5975 257.092 32.186 257.889 32.9752C258.686 33.7644 259.311 34.7406 259.764 35.9036C260.218 37.0667 260.444 38.4098 260.444 39.9328V51.4804H257.642ZM270.258 24.8961V31.1268H276.852V33.4944H270.258V44.9589C270.258 46.2605 270.492 47.2989 270.959 48.0743C271.426 48.8496 272.346 49.2373 273.72 49.2373C274.187 49.2373 274.675 49.1612 275.183 49.0089C275.691 48.8566 276.193 48.6696 276.687 48.4481L277.553 50.7742C276.893 51.0788 276.241 51.3212 275.595 51.5012C274.949 51.6812 274.297 51.7711 273.637 51.7711C271.439 51.7988 269.866 51.2035 268.919 49.985C267.971 48.7666 267.497 47.0912 267.497 44.9589V33.4944H263.334V31.1268H267.497V25.1869L270.258 24.8961ZM282.751 30.9606V42.4666C282.751 44.6266 283.348 46.2881 284.543 47.4512C285.739 48.6143 287.367 49.1819 289.427 49.1543C290.416 49.1543 291.316 48.9743 292.127 48.6143C292.937 48.2543 293.638 47.7558 294.229 47.1189C294.819 46.482 295.28 45.7412 295.609 44.8966C295.939 44.052 296.104 43.1313 296.104 42.1343V30.9606H298.824V51.4804H296.269L296.186 48.0327C295.334 49.362 294.277 50.3312 293.013 50.9404C291.749 51.5496 290.403 51.8681 288.974 51.8958C287.655 51.8958 286.446 51.6742 285.347 51.2312C284.248 50.7881 283.3 50.165 282.503 49.3619C281.707 48.5589 281.088 47.5827 280.649 46.4335C280.209 45.2843 279.989 43.9759 279.989 42.5082V30.9606H282.751ZM306.865 30.9606L307.03 34.3252C307.36 33.6329 307.765 33.0514 308.246 32.5806C308.727 32.1098 309.256 31.7291 309.833 31.4383C310.41 31.1475 311.014 30.9399 311.646 30.8152C312.278 30.6906 312.896 30.6283 313.501 30.6283C314.435 30.6283 315.252 30.7391 315.953 30.9606C316.654 31.1822 317.375 31.556 318.117 32.0822L316.839 34.4083C315.795 33.6883 314.627 33.3283 313.336 33.3283C312.457 33.3283 311.633 33.4944 310.863 33.8267C310.094 34.1591 309.428 34.609 308.864 35.1767C308.301 35.7444 307.855 36.4229 307.525 37.2121C307.195 38.0013 307.03 38.8667 307.03 39.8082V51.4804H304.269V30.9606H306.865ZM339.759 42.4251H322.037C322.119 43.5051 322.38 44.4674 322.82 45.312C323.26 46.1566 323.823 46.8697 324.51 47.4512C325.197 48.0327 325.987 48.4758 326.88 48.7804C327.773 49.085 328.727 49.2373 329.744 49.2373C330.348 49.2373 330.98 49.175 331.64 49.0504C332.299 48.9258 332.938 48.7458 333.556 48.5104C334.174 48.275 334.751 47.9843 335.287 47.6381C335.823 47.292 336.269 46.8835 336.627 46.4128L338.481 48.0743C337.465 49.3481 336.16 50.3035 334.566 50.9404C332.972 51.5773 331.365 51.8958 329.744 51.8958C328.233 51.8958 326.832 51.6465 325.54 51.1481C324.249 50.6496 323.136 49.9366 322.202 49.0089C321.268 48.0812 320.533 46.9597 319.997 45.6443C319.461 44.3289 319.193 42.8543 319.193 41.2205C319.193 39.6974 319.454 38.2852 319.976 36.9836C320.498 35.6821 321.22 34.5606 322.14 33.6191C323.06 32.6775 324.16 31.9437 325.437 31.4175C326.715 30.8914 328.109 30.6422 329.62 30.6699C331.131 30.6422 332.546 30.8637 333.865 31.3345C335.184 31.8052 336.311 32.5252 337.245 33.4944C338.179 34.4637 338.88 35.689 339.347 37.1706C339.814 38.6521 339.951 40.4036 339.759 42.4251ZM322.037 40.0574H337.162C337.135 38.9498 336.922 37.9598 336.524 37.0875C336.125 36.2152 335.589 35.4883 334.916 34.9067C334.243 34.3252 333.453 33.8821 332.546 33.5775C331.64 33.2729 330.678 33.1206 329.661 33.1206C327.601 33.1206 325.884 33.716 324.51 34.9067C323.136 36.0975 322.312 37.8144 322.037 40.0574ZM356.95 35.239C355.988 34.3529 355.02 33.7852 354.044 33.536C353.069 33.2868 352.032 33.1621 350.933 33.1621C350.191 33.1621 349.483 33.2244 348.81 33.3491C348.137 33.4737 347.546 33.6744 347.038 33.9514C346.53 34.2283 346.124 34.5744 345.822 34.9898C345.52 35.4052 345.383 35.876 345.41 36.4021C345.41 37.0113 345.582 37.5098 345.925 37.8975C346.269 38.2852 346.708 38.6036 347.244 38.8528C347.78 39.1021 348.377 39.2959 349.037 39.4344C349.696 39.5728 350.342 39.6836 350.974 39.7667C351.881 39.9051 352.828 40.0713 353.818 40.2651C354.807 40.459 355.713 40.7636 356.538 41.179C357.362 41.5943 358.042 42.1759 358.578 42.9236C359.113 43.6712 359.381 44.6681 359.381 45.9143C359.354 46.9943 359.1 47.915 358.619 48.6766C358.138 49.4381 357.506 50.0542 356.723 50.525C355.94 50.9958 355.047 51.3419 354.044 51.5635C353.041 51.785 352.032 51.8958 351.015 51.8958C349.257 51.8958 347.574 51.5842 345.966 50.9612C344.359 50.3381 343.033 49.3204 341.989 47.9081L343.72 45.9974C344.599 47.1881 345.712 48.0327 347.059 48.5312C348.405 49.0296 349.737 49.2927 351.056 49.3204C351.633 49.3204 352.245 49.2719 352.89 49.175C353.536 49.0781 354.14 48.8981 354.704 48.635C355.267 48.372 355.727 48.0189 356.084 47.5758C356.441 47.1327 356.62 46.5651 356.62 45.8728C356.62 45.2081 356.469 44.6612 356.167 44.232C355.864 43.8028 355.445 43.4566 354.91 43.1936C354.374 42.9305 353.749 42.7297 353.035 42.5913C352.32 42.4528 351.551 42.3282 350.727 42.2174C349.737 42.079 348.769 41.899 347.821 41.6774C346.873 41.4559 346.021 41.1374 345.266 40.722C344.51 40.3067 343.892 39.7598 343.411 39.0813C342.93 38.4028 342.69 37.5375 342.69 36.4852C342.69 35.4883 342.93 34.616 343.411 33.8683C343.892 33.1206 344.517 32.5045 345.286 32.0198C346.056 31.5352 346.935 31.1822 347.924 30.9606C348.913 30.7391 349.902 30.6283 350.891 30.6283C352.43 30.6283 353.831 30.8499 355.095 31.2929C356.359 31.736 357.513 32.4421 358.557 33.4114L356.95 35.239Z" fill="white"/>
</g>
<defs>
<clipPath id="clip0">
<rect x="0.714274" y="0.19812" width="414.461" height="78.2673" fill="white"/>
</clipPath>
</defs>
</svg>
