<svg width="407" height="70" viewBox="0 0 407 70" fill="none" xmlns="http://www.w3.org/2000/svg">
<path fill-rule="evenodd" clip-rule="evenodd" d="M46.3774 34.4158L51.5393 19.0769H54.5322L45.0163 46.1538H42.292L38.2632 34.5439L35.0017 24.3226L31.7786 34.5054L27.7497 46.1538H24.987L15.4712 19.0769H18.5024L26.33 42.451L27.732 38.2644L20.9944 19.0769H24.0257L29.0905 34.2078L34.1575 19.0769H35.8458L43.6734 42.451L45.0023 38.5019L43.632 34.5439L38.7007 19.0769H41.2147L46.3774 34.4158Z" fill="white"/>
<path fill-rule="evenodd" clip-rule="evenodd" d="M59.3573 19.2308V30.4615C60.1487 29.1538 61.1253 28.2372 62.2869 27.7115C63.4485 27.1859 64.6676 26.9103 65.9441 26.8846C67.2716 26.8846 68.4269 27.0962 69.4098 27.5192C70.3927 27.9423 71.2096 28.5321 71.8606 29.2885C72.5117 30.0449 73.0031 30.9487 73.335 32C73.6669 33.0513 73.8328 34.218 73.8328 35.5V46.1539H71.2671V35.5C71.2671 33.5769 70.8075 32.0705 69.8885 30.9808C68.9694 29.891 67.5525 29.3462 65.6377 29.3462C64.7186 29.3462 63.8761 29.5128 63.1102 29.8462C62.3443 30.1795 61.6869 30.6474 61.138 31.25C60.5891 31.8526 60.1615 32.5513 59.8551 33.3462C59.5488 34.141 59.3956 35 59.3956 35.9231V46.1539H56.8298V19.2308H59.3573ZM96.5464 37.7692H80.0796C80.1561 38.7692 80.3987 39.6603 80.8072 40.4423C81.2156 41.2244 81.739 41.8846 82.3773 42.4231C83.0155 42.9616 83.7495 43.3718 84.5792 43.6539C85.409 43.9359 86.2961 44.0769 87.2407 44.0769C87.8024 44.0769 88.3896 44.0192 89.0023 43.9039C89.615 43.7885 90.2086 43.6218 90.783 43.4039C91.3575 43.1859 91.8936 42.9167 92.3914 42.5962C92.8893 42.2757 93.3041 41.8974 93.636 41.4615L95.3593 43C94.4147 44.1795 93.202 45.0641 91.7213 45.6539C90.2405 46.2436 88.747 46.5385 87.2407 46.5385C85.8366 46.5385 84.5346 46.3077 83.3346 45.8462C82.1347 45.3846 81.1008 44.7244 80.2327 43.8654C79.3647 43.0064 78.6818 41.968 78.184 40.75C77.6861 39.5321 77.4372 38.1667 77.4372 36.6539C77.4372 35.2436 77.6797 33.9359 78.1648 32.7308C78.6499 31.5256 79.32 30.4872 80.1753 29.6154C81.0306 28.7436 82.0517 28.0641 83.2389 27.5769C84.4261 27.0897 85.7217 26.859 87.1259 26.8846C88.53 26.859 89.8448 27.0641 91.0702 27.5C92.2957 27.9359 93.3424 28.6026 94.2104 29.5C95.0785 30.3974 95.7295 31.5321 96.1635 32.9039C96.5975 34.2757 96.7251 35.8974 96.5464 37.7692ZM80.0796 35.5769H94.1339C94.1083 34.5513 93.9105 33.6346 93.5403 32.8269C93.1701 32.0192 92.6723 31.3462 92.0468 30.8077C91.4213 30.2692 90.6873 29.859 89.8448 29.5769C89.0023 29.2949 88.1088 29.1539 87.1641 29.1539C85.2494 29.1539 83.6538 29.7051 82.3773 30.8077C81.1008 31.9103 80.3349 33.5 80.0796 35.5769ZM116.082 30.9231V27.1539H118.494V46.1539H116.12V42.3846C115.711 43.0769 115.22 43.6859 114.645 44.2115C114.071 44.7372 113.458 45.1731 112.807 45.5192C112.156 45.8654 111.473 46.1218 110.759 46.2885C110.044 46.4551 109.329 46.5385 108.614 46.5385C107.261 46.5385 106.004 46.3077 104.842 45.8462C103.68 45.3846 102.659 44.7244 101.778 43.8654C100.898 43.0064 100.208 41.968 99.7104 40.75C99.2126 39.5321 98.9637 38.1667 98.9637 36.6539C98.9637 35.1667 99.219 33.8205 99.7296 32.6154C100.24 31.4103 100.929 30.3846 101.797 29.5385C102.666 28.6923 103.687 28.0385 104.861 27.5769C106.035 27.1154 107.299 26.8846 108.652 26.8846C109.367 26.8846 110.095 26.968 110.835 27.1346C111.576 27.3013 112.271 27.5513 112.922 27.8846C113.573 28.218 114.173 28.641 114.722 29.1539C115.271 29.6667 115.724 30.2564 116.082 30.9231ZM108.729 29.2308C107.733 29.2308 106.795 29.4103 105.914 29.7692C105.033 30.1282 104.268 30.6282 103.617 31.2692C102.965 31.9103 102.455 32.6923 102.085 33.6154C101.715 34.5385 101.529 35.5513 101.529 36.6539C101.529 37.7821 101.715 38.8013 102.085 39.7115C102.455 40.6218 102.965 41.4039 103.617 42.0577C104.268 42.7116 105.033 43.218 105.914 43.5769C106.795 43.9359 107.733 44.1154 108.729 44.1154C110.363 44.1154 111.722 43.75 112.807 43.0192C113.892 42.2885 114.703 41.3718 115.239 40.2692C115.775 39.1667 116.043 37.968 116.043 36.6731C116.043 35.3782 115.775 34.1795 115.239 33.0769C114.703 31.9744 113.892 31.0577 112.807 30.3269C111.722 29.5962 110.363 29.2308 108.729 29.2308ZM126.388 19.2308V46.1539H123.822V19.2308H126.388ZM150.982 19.2308C153.254 19.2308 155.233 19.609 156.918 20.3654C158.603 21.1218 160.001 22.1154 161.111 23.3462C162.222 24.5769 163.052 25.9808 163.6 27.5577C164.149 29.1346 164.424 30.7564 164.424 32.4231C164.424 34.1154 164.162 35.7885 163.639 37.4423C163.115 39.0962 162.311 40.5641 161.226 41.8462C160.141 43.1282 158.75 44.1667 157.052 44.9615C155.354 45.7564 153.331 46.1539 150.982 46.1539H141.523V19.2308H150.982ZM144.204 43.6539H150.982C152.846 43.6539 154.461 43.3205 155.827 42.6539C157.192 41.9872 158.316 41.1218 159.197 40.0577C160.077 38.9936 160.722 37.7885 161.13 36.4423C161.539 35.0962 161.73 33.7436 161.705 32.3846C161.679 31.0769 161.443 29.7885 160.996 28.5192C160.55 27.25 159.886 26.1154 159.005 25.1154C158.124 24.1154 157.02 23.3077 155.693 22.6923C154.365 22.0769 152.795 21.7692 150.982 21.7692H144.204V43.6539ZM186.41 37.7692H169.943C170.019 38.7692 170.262 39.6603 170.671 40.4423C171.079 41.2244 171.602 41.8846 172.241 42.4231C172.879 42.9616 173.613 43.3718 174.443 43.6539C175.272 43.9359 176.159 44.0769 177.104 44.0769C177.666 44.0769 178.253 44.0192 178.866 43.9039C179.478 43.7885 180.072 43.6218 180.646 43.4039C181.221 43.1859 181.757 42.9167 182.255 42.5962C182.753 42.2757 183.167 41.8974 183.499 41.4615L185.223 43C184.278 44.1795 183.065 45.0641 181.585 45.6539C180.104 46.2436 178.61 46.5385 177.104 46.5385C175.7 46.5385 174.398 46.3077 173.198 45.8462C171.998 45.3846 170.964 44.7244 170.096 43.8654C169.228 43.0064 168.545 41.968 168.047 40.75C167.549 39.5321 167.301 38.1667 167.301 36.6539C167.301 35.2436 167.543 33.9359 168.028 32.7308C168.513 31.5256 169.183 30.4872 170.039 29.6154C170.894 28.7436 171.915 28.0641 173.102 27.5769C174.289 27.0897 175.585 26.859 176.989 26.8846C178.393 26.859 179.708 27.0641 180.934 27.5C182.159 27.9359 183.206 28.6026 184.074 29.5C184.942 30.3974 185.593 31.5321 186.027 32.9039C186.461 34.2757 186.588 35.8974 186.41 37.7692ZM169.943 35.5769H183.997C183.972 34.5513 183.774 33.6346 183.404 32.8269C183.033 32.0192 182.536 31.3462 181.91 30.8077C181.285 30.2692 180.551 29.859 179.708 29.5769C178.866 29.2949 177.972 29.1539 177.027 29.1539C175.113 29.1539 173.517 29.7051 172.241 30.8077C170.964 31.9103 170.198 33.5 169.943 35.5769ZM206.366 27.1539L198.401 46.1923H195.567L187.602 27.1539H190.435L196.984 43.3462L203.532 27.1539H206.366ZM227.548 37.7692H211.081C211.158 38.7692 211.4 39.6603 211.809 40.4423C212.217 41.2244 212.74 41.8846 213.379 42.4231C214.017 42.9616 214.751 43.3718 215.581 43.6539C216.41 43.9359 217.298 44.0769 218.242 44.0769C218.804 44.0769 219.391 44.0192 220.004 43.9039C220.617 43.7885 221.21 43.6218 221.785 43.4039C222.359 43.1859 222.895 42.9167 223.393 42.5962C223.891 42.2757 224.306 41.8974 224.637 41.4615L226.361 43C225.416 44.1795 224.203 45.0641 222.723 45.6539C221.242 46.2436 219.749 46.5385 218.242 46.5385C216.838 46.5385 215.536 46.3077 214.336 45.8462C213.136 45.3846 212.102 44.7244 211.234 43.8654C210.366 43.0064 209.683 41.968 209.185 40.75C208.688 39.5321 208.439 38.1667 208.439 36.6539C208.439 35.2436 208.681 33.9359 209.166 32.7308C209.651 31.5256 210.322 30.4872 211.177 29.6154C212.032 28.7436 213.053 28.0641 214.24 27.5769C215.428 27.0897 216.723 26.859 218.127 26.8846C219.531 26.859 220.846 27.0641 222.072 27.5C223.297 27.9359 224.344 28.6026 225.212 29.5C226.08 30.3974 226.731 31.5321 227.165 32.9039C227.599 34.2757 227.727 35.8974 227.548 37.7692ZM211.081 35.5769H225.135C225.11 34.5513 224.912 33.6346 224.542 32.8269C224.172 32.0192 223.674 31.3462 223.048 30.8077C222.423 30.2692 221.689 29.859 220.846 29.5769C220.004 29.2949 219.11 29.1539 218.166 29.1539C216.251 29.1539 214.655 29.7051 213.379 30.8077C212.102 31.9103 211.336 33.5 211.081 35.5769ZM234.024 19.2308V46.1539H231.459V19.2308H234.024ZM247.854 26.8846C249.232 26.8846 250.515 27.1218 251.702 27.5962C252.889 28.0705 253.917 28.7436 254.785 29.6154C255.653 30.4872 256.336 31.5321 256.834 32.75C257.332 33.968 257.581 35.3077 257.581 36.7692C257.581 38.2308 257.338 39.5641 256.853 40.7692C256.368 41.9744 255.691 43.0064 254.823 43.8654C253.955 44.7244 252.928 45.3846 251.741 45.8462C250.553 46.3077 249.258 46.5385 247.854 46.5385C246.475 46.5385 245.192 46.3077 244.005 45.8462C242.818 45.3846 241.79 44.7244 240.922 43.8654C240.054 43.0064 239.371 41.9744 238.873 40.7692C238.376 39.5641 238.127 38.2308 238.127 36.7692C238.127 35.3077 238.369 33.968 238.854 32.75C239.339 31.5321 240.009 30.4872 240.865 29.6154C241.72 28.7436 242.741 28.0705 243.928 27.5962C245.115 27.1218 246.424 26.8846 247.854 26.8846ZM247.854 29.2308C246.807 29.2308 245.843 29.4167 244.962 29.7885C244.081 30.1603 243.322 30.6795 242.684 31.3462C242.045 32.0128 241.554 32.8077 241.209 33.7308C240.865 34.6539 240.692 35.6667 240.692 36.7692C240.692 37.8718 240.871 38.8782 241.229 39.7885C241.586 40.6987 242.077 41.4744 242.703 42.1154C243.328 42.7564 244.081 43.25 244.962 43.5962C245.843 43.9423 246.807 44.1154 247.854 44.1154C248.926 44.1154 249.896 43.9423 250.764 43.5962C251.632 43.25 252.385 42.7564 253.023 42.1154C253.662 41.4744 254.153 40.6987 254.498 39.7885C254.842 38.8782 255.015 37.8718 255.015 36.7692C255.015 35.6667 254.836 34.6539 254.479 33.7308C254.121 32.8077 253.63 32.0128 253.004 31.3462C252.379 30.6795 251.626 30.1603 250.745 29.7885C249.864 29.4167 248.9 29.2308 247.854 29.2308ZM271.256 44.0385C272.252 44.0385 273.184 43.8782 274.052 43.5577C274.92 43.2372 275.673 42.7628 276.311 42.1346C276.95 41.5064 277.454 40.7372 277.824 39.8269C278.194 38.9167 278.379 37.859 278.379 36.6539C278.379 35.4744 278.201 34.4295 277.843 33.5192C277.486 32.609 276.988 31.8462 276.35 31.2308C275.711 30.6154 274.958 30.1474 274.09 29.8269C273.222 29.5064 272.278 29.3462 271.256 29.3462C270.21 29.3462 269.252 29.5321 268.384 29.9039C267.516 30.2757 266.77 30.7885 266.144 31.4423C265.519 32.0962 265.034 32.8718 264.689 33.7692C264.344 34.6667 264.172 35.641 264.172 36.6923C264.172 37.7436 264.351 38.718 264.708 39.6154C265.065 40.5128 265.557 41.2885 266.182 41.9423C266.808 42.5962 267.555 43.109 268.423 43.4808C269.291 43.8526 270.235 44.0385 271.256 44.0385ZM261.415 55.2308V27.1539H263.904L263.98 31.1923C264.721 29.8333 265.768 28.7692 267.121 28C268.474 27.2308 269.98 26.859 271.639 26.8846C272.967 26.9103 274.199 27.1539 275.335 27.6154C276.471 28.0769 277.454 28.7308 278.284 29.5769C279.113 30.4231 279.764 31.4423 280.237 32.6346C280.709 33.8269 280.945 35.1667 280.945 36.6539C280.945 38.1923 280.703 39.5769 280.218 40.8077C279.732 42.0385 279.069 43.0769 278.226 43.9231C277.384 44.7692 276.375 45.4167 275.201 45.8654C274.026 46.3141 272.75 46.5385 271.371 46.5385C269.916 46.5385 268.506 46.1923 267.14 45.5C265.774 44.8077 264.708 43.7436 263.942 42.3077V55.2308H261.415ZM298.489 46.1539V35.1539C298.489 34.3077 298.355 33.5257 298.087 32.8077C297.819 32.0897 297.442 31.468 296.957 30.9423C296.472 30.4167 295.891 30 295.215 29.6923C294.538 29.3846 293.779 29.2308 292.936 29.2308C292.094 29.2308 291.334 29.3846 290.658 29.6923C289.981 30 289.4 30.4167 288.915 30.9423C288.43 31.468 288.053 32.0897 287.785 32.8077C287.517 33.5257 287.383 34.3077 287.383 35.1539V46.1539H284.818V27.0769H287.23L287.345 30.1154C287.958 28.9103 288.8 28.0705 289.872 27.5962C290.945 27.1218 292.055 26.8846 293.204 26.8846C293.893 26.8846 294.57 26.9487 295.234 27.0769C295.898 27.2051 296.529 27.4423 297.129 27.7885C297.729 28.1346 298.265 28.5897 298.738 29.1539C299.21 29.718 299.587 30.3974 299.867 31.1923C300.506 29.6795 301.45 28.5833 302.701 27.9039C303.952 27.2244 305.28 26.8846 306.684 26.8846C307.884 26.8846 308.975 27.0705 309.958 27.4423C310.941 27.8141 311.777 28.359 312.467 29.0769C313.156 29.7949 313.692 30.6603 314.075 31.6731C314.458 32.6859 314.649 33.8205 314.649 35.0769V46.1539H312.084V35.0769C312.084 34.2308 311.956 33.4487 311.701 32.7308C311.445 32.0128 311.082 31.3974 310.609 30.8846C310.137 30.3718 309.569 29.968 308.905 29.6731C308.241 29.3782 307.488 29.2308 306.646 29.2308C305.803 29.2308 305.044 29.3846 304.367 29.6923C303.691 30 303.103 30.4167 302.606 30.9423C302.108 31.468 301.725 32.0897 301.457 32.8077C301.189 33.5257 301.055 34.3077 301.055 35.1539V46.1539H298.489ZM337.363 37.7692H320.896C320.973 38.7692 321.215 39.6603 321.624 40.4423C322.032 41.2244 322.556 41.8846 323.194 42.4231C323.832 42.9616 324.566 43.3718 325.396 43.6539C326.226 43.9359 327.113 44.0769 328.057 44.0769C328.619 44.0769 329.206 44.0192 329.819 43.9039C330.432 43.7885 331.025 43.6218 331.6 43.4039C332.174 43.1859 332.71 42.9167 333.208 42.5962C333.706 42.2757 334.121 41.8974 334.453 41.4615L336.176 43C335.231 44.1795 334.019 45.0641 332.538 45.6539C331.057 46.2436 329.564 46.5385 328.057 46.5385C326.653 46.5385 325.351 46.3077 324.151 45.8462C322.951 45.3846 321.917 44.7244 321.049 43.8654C320.181 43.0064 319.498 41.968 319.001 40.75C318.503 39.5321 318.254 38.1667 318.254 36.6539C318.254 35.2436 318.496 33.9359 318.981 32.7308C319.466 31.5256 320.137 30.4872 320.992 29.6154C321.847 28.7436 322.868 28.0641 324.055 27.5769C325.243 27.0897 326.538 26.859 327.942 26.8846C329.347 26.859 330.661 27.0641 331.887 27.5C333.112 27.9359 334.159 28.6026 335.027 29.5C335.895 30.3974 336.546 31.5321 336.98 32.9039C337.414 34.2757 337.542 35.8974 337.363 37.7692ZM320.896 35.5769H334.95C334.925 34.5513 334.727 33.6346 334.357 32.8269C333.987 32.0192 333.489 31.3462 332.863 30.8077C332.238 30.2692 331.504 29.859 330.661 29.5769C329.819 29.2949 328.925 29.1539 327.981 29.1539C326.066 29.1539 324.47 29.7051 323.194 30.8077C321.917 31.9103 321.151 33.5 320.896 35.5769ZM355.941 46.1539V35.5C355.941 33.4487 355.392 31.8974 354.294 30.8462C353.196 29.7949 351.69 29.2692 349.775 29.2692C348.856 29.2692 348.014 29.4423 347.248 29.7885C346.482 30.1346 345.831 30.6026 345.295 31.1923C344.759 31.7821 344.337 32.468 344.031 33.25C343.725 34.0321 343.571 34.8846 343.571 35.8077V46.1539H341.006V27.1539H343.457L343.533 30.3462C344.325 29.1154 345.295 28.2244 346.444 27.6731C347.592 27.1218 348.799 26.8462 350.062 26.8462C351.326 26.8462 352.475 27.0256 353.509 27.3846C354.543 27.7436 355.43 28.2885 356.171 29.0192C356.911 29.75 357.492 30.6538 357.913 31.7308C358.334 32.8077 358.545 34.0513 358.545 35.4615V46.1539H355.941ZM367.664 21.5385V27.3077H373.791V29.5H367.664V40.1154C367.664 41.3205 367.881 42.2821 368.315 43C368.749 43.718 369.604 44.0769 370.88 44.0769C371.314 44.0769 371.768 44.0064 372.24 43.8654C372.712 43.7244 373.178 43.5513 373.638 43.3462L374.442 45.5C373.829 45.7821 373.223 46.0064 372.623 46.1731C372.023 46.3398 371.417 46.4231 370.804 46.4231C368.761 46.4487 367.3 45.8975 366.419 44.7692C365.538 43.641 365.098 42.0898 365.098 40.1154V29.5H361.23V27.3077H365.098V21.8077L367.664 21.5385ZM389.305 31.1154C388.411 30.2949 387.511 29.7692 386.605 29.5385C385.699 29.3077 384.735 29.1923 383.714 29.1923C383.025 29.1923 382.367 29.25 381.742 29.3654C381.116 29.4808 380.567 29.6667 380.095 29.9231C379.623 30.1795 379.246 30.5 378.965 30.8846C378.684 31.2692 378.557 31.7051 378.582 32.1923C378.582 32.7564 378.742 33.218 379.061 33.5769C379.38 33.9359 379.789 34.2308 380.286 34.4615C380.784 34.6923 381.34 34.8718 381.952 35C382.565 35.1282 383.165 35.2308 383.752 35.3077C384.595 35.4359 385.475 35.5898 386.395 35.7692C387.314 35.9487 388.156 36.2308 388.922 36.6154C389.688 37 390.32 37.5385 390.818 38.2308C391.315 38.9231 391.564 39.8462 391.564 41C391.539 42 391.303 42.8526 390.856 43.5577C390.409 44.2628 389.822 44.8333 389.094 45.2692C388.367 45.7051 387.537 46.0257 386.605 46.2308C385.673 46.4359 384.735 46.5385 383.79 46.5385C382.157 46.5385 380.593 46.25 379.099 45.6731C377.606 45.0962 376.374 44.1539 375.404 42.8462L377.012 41.0769C377.829 42.1795 378.863 42.9615 380.114 43.4231C381.365 43.8846 382.603 44.1282 383.829 44.1539C384.365 44.1539 384.933 44.109 385.533 44.0192C386.133 43.9295 386.695 43.7628 387.218 43.5192C387.741 43.2757 388.169 42.9487 388.501 42.5385C388.833 42.1282 388.999 41.6026 388.999 40.9615C388.999 40.3462 388.858 39.8398 388.577 39.4423C388.297 39.0449 387.907 38.7244 387.409 38.4808C386.912 38.2372 386.331 38.0513 385.667 37.9231C385.003 37.7949 384.288 37.6795 383.522 37.5769C382.603 37.4487 381.703 37.2821 380.823 37.0769C379.942 36.8718 379.15 36.5769 378.448 36.1923C377.746 35.8077 377.172 35.3013 376.725 34.6731C376.278 34.0449 376.055 33.2436 376.055 32.2692C376.055 31.3462 376.278 30.5385 376.725 29.8462C377.172 29.1538 377.753 28.5833 378.467 28.1346C379.182 27.6859 379.999 27.359 380.918 27.1539C381.837 26.9487 382.757 26.8462 383.676 26.8462C385.105 26.8462 386.407 27.0513 387.582 27.4615C388.756 27.8718 389.828 28.5256 390.798 29.4231L389.305 31.1154Z" fill="white"/>
</svg>
